<mxfile host="app.diagrams.net" modified="2021-03-23T17:32:24.507Z" agent="5.0 (Windows NT 10.0; Win64; x64) AppleWebKit/537.36 (KHTML, like Gecko) Chrome/89.0.4389.90 Safari/537.36 Edg/89.0.774.57" etag="jZPyqzGVP7Pr0MV5smw-" version="14.2.5" type="github">
  <diagram id="TU7IOaJb6Eo17D0d8oxV" name="第 1 页">
    <mxGraphModel dx="1052" dy="586" grid="1" gridSize="10" guides="1" tooltips="1" connect="1" arrows="1" fold="1" page="1" pageScale="1" pageWidth="827" pageHeight="1169" math="0" shadow="0">
      <root>
        <mxCell id="0" />
        <mxCell id="1" parent="0" />
        <mxCell id="AEK7xt4NDZOAvPSIdGuI-1" value="" style="rounded=1;whiteSpace=wrap;html=1;fillColor=#21C0A5;strokeColor=#006658;fontColor=#5C5C5C;" vertex="1" parent="1">
          <mxGeometry x="280" y="60" width="150" height="70" as="geometry" />
        </mxCell>
        <mxCell id="AEK7xt4NDZOAvPSIdGuI-2" value="HiGIT" style="rounded=1;whiteSpace=wrap;html=1;fillColor=#21C0A5;strokeColor=#006658;fontColor=#5C5C5C;" vertex="1" parent="1">
          <mxGeometry x="120" y="70" width="120" height="60" as="geometry" />
        </mxCell>
      </root>
    </mxGraphModel>
  </diagram>
</mxfile>
